<svg width="25" height="14" viewBox="0 0 25 14" fill="none" xmlns="http://www.w3.org/2000/svg">
  <path fill-rule="evenodd" clip-rule="evenodd" d="M8.20922 0.293723C8.11633 0.200617 8.00599 0.126747 7.88451 0.076345C7.76303 0.0259431 7.63279 0 7.50127 0C7.36974 0 7.23951 0.0259431 7.11803 0.076345C6.99655 0.126747 6.88621 0.200617 6.79332 0.293723L0.793765 6.29242C0.700645 6.38529 0.626766 6.49562 0.576357 6.61708C0.525947 6.73854 0.5 6.86876 0.5 7.00026C0.5 7.13177 0.525947 7.26198 0.576357 7.38345C0.626766 7.50491 0.700645 7.61524 0.793765 7.70811L6.79332 13.7068C6.98108 13.8945 7.23574 14 7.50127 14C7.7668 14 8.02146 13.8945 8.20922 13.7068C8.39698 13.5191 8.50246 13.2644 8.50246 12.999C8.50246 12.7335 8.39698 12.4788 8.20922 12.2911L2.91561 7.00026L8.20922 1.70941C8.30234 1.61654 8.37622 1.50622 8.42662 1.38475C8.47703 1.26329 8.50298 1.13307 8.50298 1.00157C8.50298 0.870063 8.47703 0.739849 8.42662 0.618385C8.37622 0.496921 8.30234 0.386594 8.20922 0.293723Z" fill="#000066"/>
  <path fill-rule="evenodd" clip-rule="evenodd" d="M24.5 7.00027C24.5 6.73511 24.3947 6.48082 24.2071 6.29332C24.0196 6.10582 23.7653 6.00049 23.5001 6.00049H2.50163C2.23643 6.00049 1.9821 6.10582 1.79457 6.29332C1.60705 6.48082 1.5017 6.73511 1.5017 7.00027C1.5017 7.26543 1.60705 7.51973 1.79457 7.70723C1.9821 7.89472 2.23643 8.00005 2.50163 8.00005H23.5001C23.7653 8.00005 24.0196 7.89472 24.2071 7.70723C24.3947 7.51973 24.5 7.26543 24.5 7.00027Z" fill="#000066"/>
</svg>
