<svg width="8" height="14" viewBox="0 0 8 14" fill="none" xmlns="http://www.w3.org/2000/svg">
<path fill-rule="evenodd" clip-rule="evenodd" d="M0.645673 13.3539C0.59911 13.3075 0.562167 13.2523 0.53696 13.1915C0.511754 13.1308 0.498779 13.0657 0.498779 12.9999C0.498779 12.9341 0.511754 12.869 0.53696 12.8083C0.562167 12.7475 0.59911 12.6923 0.645673 12.6459L6.29267 6.9999L0.645673 1.3539C0.599185 1.30741 0.562309 1.25222 0.537149 1.19148C0.51199 1.13074 0.499041 1.06564 0.499041 0.999899C0.499041 0.934155 0.51199 0.869055 0.537149 0.808315C0.562309 0.747576 0.599185 0.692387 0.645673 0.645899C0.692161 0.599411 0.74735 0.562534 0.808089 0.537375C0.868829 0.512217 0.933929 0.499268 0.999673 0.499268C1.06542 0.499268 1.13052 0.512217 1.19126 0.537375C1.252 0.562534 1.30718 0.599411 1.35367 0.645899L7.35367 6.6459C7.40024 6.69235 7.43718 6.74752 7.46238 6.80827C7.48759 6.86901 7.50057 6.93413 7.50057 6.9999C7.50057 7.06567 7.48759 7.13079 7.46238 7.19153C7.43718 7.25228 7.40024 7.30746 7.35367 7.3539L1.35367 13.3539C1.30723 13.4005 1.25205 13.4374 1.19131 13.4626C1.13056 13.4878 1.06544 13.5008 0.999673 13.5008C0.933906 13.5008 0.868784 13.4878 0.808039 13.4626C0.747294 13.4374 0.692118 13.4005 0.645673 13.3539Z" fill="#6C757D"/>
</svg>
