<svg width="21" height="20" viewBox="0 0 21 20" fill="none" xmlns="http://www.w3.org/2000/svg">
<g clip-path="url(#clip0)">
<path fill-rule="evenodd" clip-rule="evenodd" d="M13.5525 13.0525C13.6686 12.9363 13.8064 12.8441 13.9582 12.7812C14.1099 12.7183 14.2726 12.6859 14.4369 12.6859C14.6011 12.6859 14.7638 12.7183 14.9155 12.7812C15.0673 12.8441 15.2052 12.9363 15.3212 13.0525L20.1337 17.865C20.3683 18.0994 20.5001 18.4174 20.5002 18.749C20.5004 19.0805 20.3688 19.3986 20.1344 19.6331C19.9 19.8677 19.582 19.9995 19.2504 19.9996C18.9188 19.9998 18.6008 19.8682 18.3662 19.6338L13.5537 14.8213C13.4375 14.7052 13.3453 14.5673 13.2824 14.4156C13.2195 14.2638 13.1871 14.1012 13.1871 13.9369C13.1871 13.7726 13.2195 13.61 13.2824 13.4582C13.3453 13.3065 13.4375 13.1686 13.5537 13.0525H13.5525Z" fill="#000066"/>
<path fill-rule="evenodd" clip-rule="evenodd" d="M8.625 15C9.52784 15 10.4218 14.8222 11.2559 14.4767C12.0901 14.1312 12.848 13.6248 13.4864 12.9864C14.1248 12.348 14.6312 11.5901 14.9767 10.7559C15.3222 9.92184 15.5 9.02784 15.5 8.125C15.5 7.22216 15.3222 6.32817 14.9767 5.49405C14.6312 4.65994 14.1248 3.90204 13.4864 3.26364C12.848 2.62524 12.0901 2.11883 11.2559 1.77333C10.4218 1.42783 9.52784 1.25 8.625 1.25C6.80164 1.25 5.05295 1.97433 3.76364 3.26364C2.47433 4.55295 1.75 6.30164 1.75 8.125C1.75 9.94836 2.47433 11.697 3.76364 12.9864C5.05295 14.2757 6.80164 15 8.625 15ZM16.75 8.125C16.75 10.2799 15.894 12.3465 14.3702 13.8702C12.8465 15.394 10.7799 16.25 8.625 16.25C6.47012 16.25 4.40349 15.394 2.87976 13.8702C1.35602 12.3465 0.5 10.2799 0.5 8.125C0.5 5.97012 1.35602 3.90349 2.87976 2.37976C4.40349 0.856024 6.47012 0 8.625 0C10.7799 0 12.8465 0.856024 14.3702 2.37976C15.894 3.90349 16.75 5.97012 16.75 8.125Z" fill="#000066"/>
</g>
<defs>
<clipPath id="clip0">
<rect width="20" height="20" fill="white" transform="translate(0.5)"/>
</clipPath>
</defs>
</svg>
